# xmcd
# 
# Track frame offsets:
#     150
#     12052
#     25002
#     41012
#     56662
#     75217
#     95165
#     111935
#     126782
#     145320
#     163465
#     176512
#     190147
# 
# Disc length: 2793
# 
# Revision: 3
# Processed by: cddbd v1.5.2PL0 Copyright (c) Steve Scherf et al.
# Submitted via: fre:ac v1.0.31
# 
DISCID=a90ae70d
DTITLE=Quarteto em Cy and MPB4 - Somos todos iguais
DYEAR=1998
DGENRE=MPB
TTITLE0=Fato consumado
TTITLE1=Somos todos iguais nesta noite
TTITLE2=Pássaro
TTITLE3=Dinorah, Dinorah
TTITLE4=Sina
TTITLE5=Novo tempo
TTITLE6=Lilás
TTITLE7=Antes que seja tarde
TTITLE8=Nem um dia
TTITLE9=Velas içadas
TTITLE10=Meu bem-querer
TTITLE11=Desesperar jamais
TTITLE12=Oceano
EXTD=Depois de se unirem para cantar musicas\n de Chico Buarque e Tom Jobim, os grupos \nQuarteto Em Cy e MPB-4 gravaram juntos \neste disco, desta vez dando voz a composicoes \nde Ivan Lins e Djavan.
EXTT0=
EXTT1=
EXTT2=
EXTT3=
EXTT4=
EXTT5=
EXTT6=
EXTT7=
EXTT8=
EXTT9=
EXTT10=
EXTT11=
EXTT12=
PLAYORDER=
